<?xml version="1.0" encoding="utf-8"?>
<!-- Generator: Adobe Illustrator 22.0.1, SVG Export Plug-In . SVG Version: 6.00 Build 0)  -->
<svg version="1.1" xmlns="http://www.w3.org/2000/svg" xmlns:xlink="http://www.w3.org/1999/xlink" x="0px" y="0px"
	 viewBox="0 0 1000 1000" style="enable-background:new 0 0 1000 1000;" xml:space="preserve">
<style type="text/css">
	.st0{fill:#333333;}
	.st1{fill:#A3A29F;}
	.st2{fill:#D3D1CC;}
	.st3{fill:#C2BDBA;}
	.st4{fill:#586E80;}
	.st5{fill:#00CC33;}
	.st6{fill:#CCCCCC;}
</style>
<g id="Calque_1">
</g>
<g id="Calque_2">
	<path class="st0" d="M911.7,347.8c0,0,9.5,255.9-34.2,378c-5.8,16.3-74.4-403.4-74.4-403.4L911.7,347.8z"/>
	<path class="st1" d="M896.6,315.1c0,0,3.7,1.4,15.1,32.7c0,0-56.2,164-34.2,378L859,756.7C859,756.7,666.2,439.8,896.6,315.1z"/>
	<path class="st0" d="M275.7,266.3c14.5,1.7,29.4,2.5,9.8-48.1c-0.7-1.7-3-7.1-4.1-8.6l-71.8-109c-3.6-4.8-9.2-8-15.3-8.3
		c-7.6-0.3-15.7,4-13.6,25.1c0.3,2.9,1.2,5.7,2.7,8.2l73.2,123.9C263.7,261.8,269.3,265.5,275.7,266.3z"/>
	<path class="st0" d="M234.4,691.4l-76.8,91.3c-5.5,6.6-12.2,20.6-12,29.2c0.2,12.6,14.3,18,32.7,2.3c29.3-25.2,97.9-94.9,97.9-94.9
		s14.3-42.8-24.5-37.5C244.9,682.7,238.8,686.2,234.4,691.4z"/>
	<path class="st2" d="M753.1,159.8h-29c0,0-84-40-104-36s-43,28.8-43,28.8c-14-21.2-52-28.8-52-28.8c-86,25.1-96.3,28.8-96.3,28.8
		c-24.2-8.2-41.4-0.1-41.6,0c-120.1,67-201.9,200.2-201.9,353.6c0,132.2,60.8,249.4,154.5,322.2c7.6-4.5,27.4-2.5,27.4-2.5
		c49,39,106.1,48.3,106.1,48.3l43-17.3l50.2,12.3c72.9-23,86.7,1.9,86.7,1.9c23.7,7,34.9,11.6,38,11.7
		c66.5-25,124.5-69.2,167.9-126.1c-5.2-8.6-9.5-21.5-12.4-39.8c-19.5-123,16.5-307.5,28.5-358.7c7.5-31.9,16.1-40.8,21.5-43
		C863.2,250.5,813.4,196.6,753.1,159.8z"/>
	<path class="st3" d="M367,825.8c28.5,22.7,59.3,36.9,80.1,44.8c14.9,5.7,31.5,4.9,45.8-2.3l20.4-9.9l25.3,20.5
		c56.2,14.9,122.1-5.8,122.1-5.8c-123-459,48.3-711.3,63.3-713.3c0,0-84-40-104-36s-43,28.8-43,28.8c-7.3-4-16.4-10.2-25.3-19.4
		c-4.4-4.6-8-9.2-10.8-13.3c-89.3,18-112.2,32.8-112.2,32.8c-24.2-8.2-41.4-0.1-41.6,0c-218,386.8-47.4,675.8-47.4,675.8
		C347.3,823.9,367,825.8,367,825.8z"/>
	<path class="st0" d="M428.7,152.6c0,0-69.2,16.2-90.2,121.7s-21,7.5-21,7.5s16.5-97.5,69.5-129.2
		C387.1,152.6,402.5,144.3,428.7,152.6z"/>
	<path class="st0" d="M339.7,828.3c0,0,7.4,0,27.4-2.5c0,0-23.3,1.3-59.3-104c-38.9-113.7,0-3.3,0-3.3l-21.3-36.2
		C286.4,682.3,319.6,798.9,339.7,828.3z"/>
	<path class="st0" d="M540.9,119.8c0,0-35.5,3.2-62.4,38.9h31.2c0,0-24.4,35.4-31.2,57.7c0,0-4.8,18,18.5,4l32.7-61.7l41.2,5.1
		l13.7-14.9C584.6,148.9,559.7,138.5,540.9,119.8z"/>
	<path class="st4" d="M505.9,164.4c-14,19.7-27.4,48.4-27.4,48.4l10.2,5l11.4-3.1l19.8-37.4L505.9,164.4z"/>
	<path class="st4" d="M540.9,119.8c-40.5,5.5-62.4,38.9-62.4,38.9h9.3c18-7.9,57-35.2,57-35.2L540.9,119.8z"/>
	<path class="st0" d="M483.6,872.1c0,0-33.7-3.6-47.8-30.2l23.9,4c0,0-33.8-40.7-23.9-55.3c9.9-14.7,19.2-4,19.2-4l26.1,59.3
		l32.3,12.7C513.4,858.5,527.8,863.3,483.6,872.1z"/>
	<path class="st4" d="M459.7,845.8l19.6-4l-16.1-36.5l-10.8-10.1l-18.4,6.1C434,801.2,435.7,816.2,459.7,845.8z"/>
	<path class="st4" d="M453.3,844.8l1.5,2.6C453.5,845.5,453.3,844.8,453.3,844.8l-17.6-2.9c13,27.8,47.8,30.2,47.8,30.2l6-0.3
		L453.3,844.8z"/>
	<ellipse class="st1" cx="478.5" cy="509.3" rx="252.5" ry="296.5"/>
	<path class="st2" d="M713.1,505.4c0-139.3-91.4-254.2-209.2-269.7c0,0,0,0,0,0c0,0-83.8,210.8-74.6,535.7c0,0,0,0,0,0
		c15.3,3.6,31.1,5.4,47.3,5.4C607.3,776.9,713.1,655.3,713.1,505.4z"/>
	<path class="st3" d="M240.3,505.4c0,132,82,242,190.7,266.4c-30-271,72.9-536.1,72.9-536.1l0,0c-8.9-1.2-18-1.8-27.3-1.8
		C346.2,233.9,240.3,355.5,240.3,505.4z"/>
	<path d="M425.1,685.4c-1.3,1.6-2,3.6-2,5.7c0,10.4,0.2,48.4,3.8,79.7c3,0.7,6,1.4,9,2c-1-15.1-4.2-67.6-3.2-81
		C433.5,677.3,427.1,683,425.1,685.4z"/>
	<path d="M467.7,332.5h9c7.2-35.1,25.8-79.4,33-95.9c-3.8-0.6-7.5-1.1-11.3-1.5C484.2,259.5,467.7,332.5,467.7,332.5z"/>
	<path class="st0" d="M752.3,159.8c-16.9-2.4-18.8,0-28.3,0c0,0-42.1,6.1-71.5,134.6l6.2,7.1C662.1,283.4,704,161.8,752.3,159.8z"/>
	<path class="st1" d="M593.5,266.8l-20.2,65.9c0,0-13.7,53.3,28.2,59.4c41,6,91,1,91,1S673.6,326.9,593.5,266.8z"/>
	<path class="st3" d="M601.2,279.5l-18.5,60c0,0-12,43,26.6,46.6c35.3,3.3,73.3,2.2,73.3,2.2S674.4,334.3,601.2,279.5z"/>
	<ellipse class="st0" cx="455" cy="511.8" rx="160.1" ry="182"/>
	<ellipse cx="491" cy="498.8" rx="112.7" ry="129"/>
	<ellipse class="st5" cx="491" cy="498.8" rx="103.9" ry="119"/>
	<polygon points="472,537.8 501.4,540.7 510.2,465.3 480.1,461.4 	"/>
	<path class="st6" d="M329,591.8c0,0,142,38.7,232.7,42.7C561.7,634.5,449.7,771.2,329,591.8z"/>
	<path class="st6" d="M387,361.8l170,18C557,379.8,491,295.8,387,361.8z"/>
	<path class="st0" d="M691.1,882.8c0,0-19.5-11.6-59.2-137.9l-9,7.7l37.9,120.5C660.8,873.1,679,886.8,691.1,882.8z"/>
	<path class="st1" d="M205.7,128.5c0,0-16.6-5.8-10.8-18.3c2.6-5.6,8.3-9,14.5-9.2c15.6-0.5,55.8-2.6,108.1-10.8
		c49.3-7.7,34.8,18.5,34.8,18.5l-11.3,8.5C341,117.2,294.9,128.6,205.7,128.5z"/>
	<path class="st0" d="M330.3,86c-7.3,0.8-13.8,5.4-16.5,12.2c-2.7,6.8-2,16,11.9,25.3c3.9,2.6,158.6-23.2,319.1,5.7
		c3,0.5,6.2-0.2,8.7-2l0,0c0,0,2.9-1.3,7-7.5c4.5-6.8,5.8-16.1-9-25c0,0,0,0,0,0C651.5,94.8,546.4,62.3,330.3,86z"/>
	<path class="st1" d="M641.1,109.4c-0.4,2.2-0.3,9.6,1.5,12.6c3.7,6.1,6.3,4.1,13,5.8c21.6,5.3,86.7,18.5,159.3,16.2
		c6.8-0.2,12-7,10.3-13.9c-0.1-0.3-0.2-0.6-0.3-0.9c-2.6-8.4-9.5-11.8-17.9-11.7c-21.3,0.5-79-2.1-152.5-17.4
		C648.4,98.8,642.2,102.9,641.1,109.4z"/>
	<path class="st0" d="M830.4,113.6c0,0-7.2-20-20.2-8.6c-4.7,4.2-7,9.3-6.9,14.5c0.4,16.4,3,67.7,19.8,165.2
		c3,17.4,21,24.3,25.4,6.5c9.9-39.6-0.4-93.1-9.2-132.8L830.4,113.6z"/>
	<path class="st1" d="M153.3,802.7c3.2-9,11.4-14.4,19.9-13.7c18.2,1.5,58,8.8,108.3,42.2c69.7,46.2,0,32.8,0,32.8
		s-59.8-41.8-117-42.2C156.2,821.7,150.6,811.6,153.3,802.7C153.4,802.4,153.2,803,153.3,802.7z"/>
	<path class="st0" d="M270.5,859.3C270.6,859.6,270.4,859,270.5,859.3c0,0,39.9,31.7,312.3,58.1c12.4,1.2,23-8.8,22.5-21.2
		c0-0.2,0-0.5,0-0.7c-0.5-10.5-9.1-18.8-19.6-19.2c-45.5-2-178.8-11-297.2-50.4C270.8,819.9,263.5,841.6,270.5,859.3z"/>
	<path class="st1" d="M590,882.8c2.7-1,8.8,0.1,11.8,0c19.7-0.7,102.8,5.6,145.5,9.3c11.3,1,55.4,34.1-17.3,29l-138-9
		c-5.1-0.1-9.7-1.4-12.8-5.5C574.4,900,574.2,888.7,590,882.8z"/>
	<path class="st0" d="M777.8,781.7l-40,129.9c-1.5,4.8-1.4,9.9,0.6,14.5c2.4,5.8,5.6,17.9,17.4,12.8c9.2-4,16.1-11.9,19.5-21.3
		l38-107.8c3-8.6,3.9-17.9,2-26.9c-1.9-9.5-6.9-18.7-19-17.1C787.6,766.9,780.4,773.3,777.8,781.7z"/>
</g>
</svg>
